<svg id="Layer_5" enable-background="new 0 0 64 64" height="512" viewBox="0 0 64 64" width="512" xmlns="http://www.w3.org/2000/svg"><g><g><g><path d="m56 31c-3.86 0-7-3.14-7-7s3.14-7 7-7 7 3.14 7 7-3.14 7-7 7zm0-9c-1.103 0-2 .897-2 2s.897 2 2 2 2-.897 2-2-.897-2-2-2z" fill="#f0bc5e"/></g></g><g><g><path d="m37 32c-2.757 0-5-2.243-5-5s2.243-5 5-5 5 2.243 5 5-2.243 5-5 5z" fill="#f0bc5e"/></g></g><g><g><path d="m8 31c-3.86 0-7-3.14-7-7s3.14-7 7-7 7 3.14 7 7-3.14 7-7 7zm0-9c-1.103 0-2 .897-2 2s.897 2 2 2 2-.897 2-2-.897-2-2-2z" fill="#f0bc5e"/></g></g><g><g><path d="m37 32c-2.757 0-5-2.243-5-5s2.243-5 5-5 5 2.243 5 5-2.243 5-5 5z" fill="#f0bc5e"/></g></g><g><path d="m55 41h2v2h-2z"/><path d="m55 37h2v2h-2z"/><path d="m55 33h2v2h-2z"/><path d="m7 41h2v2h-2z"/><path d="m7 37h2v2h-2z"/><path d="m7 33h2v2h-2z"/><path d="m59.048 1c-.905 0-1.79.314-2.492.885l-12.461 10.125c-.032-.001-.062-.01-.095-.01-2.206 0-4 1.794-4 4 0 .74.215 1.424.567 2.019l-4.027 4.027c.153-.014.302-.046.46-.046.709 0 1.382.153 1.994.42l2.987-2.987c.595.352 1.279.567 2.019.567 1.701 0 3.148-1.072 3.725-2.572l3.601-2.33-.294 3.978c.604-.609 1.32-1.104 2.113-1.46l.287-3.88 4.904-3.173.521 7.052c.793.356 1.509.851 2.113 1.46l-.72-9.751.947-.613c1.128-.731 1.803-1.971 1.803-3.317v-.442c0-2.179-1.773-3.952-3.952-3.952zm-15.048 17c-1.103 0-2-.897-2-2s.897-2 2-2 2 .897 2 2-.897 2-2 2zm17-12.606c0 .665-.333 1.278-.892 1.639l-12.261 7.933c-.242-.897-.78-1.669-1.513-2.2l11.483-9.329c.347-.282.784-.437 1.231-.437 1.077 0 1.952.876 1.952 1.952z"/><circle cx="37" cy="27" r="1"/><path d="m61 28.89c-.574.587-1.251 1.068-2 1.425v14.685h-6v-14.685c-.749-.357-1.426-.839-2-1.425v16.11h-12v-6.586l4.306-4.306-2.655-3.716c-.456.491-1.003.892-1.622 1.169l1.665 2.332-3.694 3.693v7.414h-6v-4.556c1.19-.694 2-1.97 2-3.444h-2c0 1.103-.897 2-2 2h-2c-1.103 0-2-.897-2-2v-4.414l-1.803-1.803 3.563-7.839c.537-1.181 1.722-1.944 3.019-1.944 1.068 0 2.077.519 2.698 1.388l.872 1.22c.456-.491 1.003-.892 1.623-1.169l-.867-1.214c-.996-1.393-2.613-2.225-4.326-2.225-1.443 0-2.79.599-3.773 1.592l-2.573-2.573c.352-.595.567-1.279.567-2.019 0-2.206-1.794-4-4-4-.033 0-.063.009-.095.01l-12.461-10.125c-.702-.571-1.587-.885-2.492-.885-2.179 0-3.952 1.773-3.952 3.952v.442c0 1.346.675 2.586 1.805 3.318l.947.613-.72 9.751c.604-.609 1.32-1.104 2.113-1.46l.521-7.052 4.904 3.173.287 3.88c.793.356 1.509.851 2.113 1.46l-.294-3.978 3.601 2.33c.575 1.499 2.022 2.571 3.723 2.571.74 0 1.424-.215 2.019-.567l2.846 2.846-4.063 8.938 2.198 2.197v3.586c0 2.206 1.794 4 4 4h2v4h-16v-16.11c-.574.587-1.251 1.068-2 1.425v14.685h-6v-14.685c-.749-.357-1.426-.839-2-1.425v16.11h-2v6h2v12h58v-12h2v-6h-2zm-57.108-21.857c-.559-.361-.892-.974-.892-1.639v-.442c0-1.076.875-1.952 1.952-1.952.447 0 .884.155 1.231.437l11.482 9.329c-.733.531-1.271 1.303-1.513 2.2zm14.108 8.967c0-1.103.897-2 2-2s2 .897 2 2-.897 2-2 2-2-.897-2-2zm-13 35h4v10h-4zm48 0v10h-17v-10zm-19 10h-4v-10h4zm-6 0h-17v-10h17zm31 0h-4v-10h4zm2-12h-58v-2h58z"/><path d="m59 24c0-1.654-1.346-3-3-3s-3 1.346-3 3 1.346 3 3 3 3-1.346 3-3zm-3 1c-.551 0-1-.449-1-1s.449-1 1-1 1 .449 1 1-.449 1-1 1z"/><path d="m11 24c0-1.654-1.346-3-3-3s-3 1.346-3 3 1.346 3 3 3 3-1.346 3-3zm-3 1c-.551 0-1-.449-1-1s.449-1 1-1 1 .449 1 1-.449 1-1 1z"/></g></g></svg>