<svg xmlns="http://www.w3.org/2000/svg" xmlns:xlink="http://www.w3.org/1999/xlink" viewBox="0 0 824.43 1030.26"><defs><style>.cls-1{fill:#f1f1f2;}.cls-2{clip-path:url(#clip-path);}</style><clipPath id="clip-path"><path class="cls-1" d="M122.13,137.41v194c91,8,168.06,64.65,205,143.77A93.09,93.09,0,0,0,315.65,485a83,83,0,1,0,25.59,163.86c-27.62,98.61-114.06,172.64-219.11,181.87v193.92c241.5-4.1,436-201.14,436-443.61S363.63,141.5,122.13,137.41Z"/></clipPath></defs><title>svg-2_1</title><g id="Layer_2" data-name="Layer 2"><g id="Layer_1-2" data-name="Layer 1"><path class="cls-1" d="M122.13,137.41v194c91,8,168.06,64.65,205,143.77A93.09,93.09,0,0,0,315.65,485a83,83,0,1,0,25.59,163.86c-27.62,98.61-114.06,172.64-219.11,181.87v193.92c241.5-4.1,436-201.14,436-443.61S363.63,141.5,122.13,137.41Z"/><g class="cls-2"><image width="8980" height="11222" transform="scale(0.09)" xlink:href="../palm-dark.png"/></g></g></g></svg>