<?xml version="1.0" encoding="utf-8"?>
<!-- Generator: Adobe Illustrator 23.1.0, SVG Export Plug-In . SVG Version: 6.00 Build 0)  -->
<svg version="1.1" id="Layer_1" xmlns="http://www.w3.org/2000/svg" xmlns:xlink="http://www.w3.org/1999/xlink" x="0px" y="0px"
	 viewBox="0 0 1920 1080" style="enable-background:new 0 0 1920 1080;" xml:space="preserve">
<style type="text/css">
	.st0{fill:#8D724B;}
	.st1{fill:#FFFFFF;}
	.st2{fill:#E6E6E6;stroke:#E6E6E6;stroke-miterlimit:10;}
</style>
<g>
	<path class="st0" d="M1790.7,460.8c-141,0-255.3-114.3-255.3-255.3c0-84.3,40.8-159,103.8-205.5h-130.5
		c-42.9,57.3-68.3,128.4-68.3,205.5v0.7c0.1,44.5,8.7,87.1,24.2,126.1c50.4,126.9,174.3,216.5,319.1,216.5
		c48.4,0,94.5-10,136.3-28.1v-95C1882.1,448,1837.9,460.8,1790.7,460.8z"/>
	<circle class="st1" cx="1449.7" cy="269.7" r="64.2"/>
</g>
<path class="st2" d="M0,707c374.9,126.9,685.6,197.8,908.5,239.5c171.6,32.1,279,44.5,400,45c259.5,1,471-53.5,611-101
	c0,63,0,126,0,189c-640,0-1280,0-1920,0C-0.3,955.3-0.2,831.2,0,707z"/>
<path class="st2" d="M2250.5,1142.5"/>
</svg>
